<?xml version="1.0" encoding="UTF-8"?>
<svg id="a" data-name="Layer 1" xmlns="http://www.w3.org/2000/svg" xmlns:xlink="http://www.w3.org/1999/xlink" viewBox="0 0 56 56">
  <defs>
    <style>
      .c {
        fill: none;
        stroke: url(#b);
        stroke-width: 2.1px;
      }

      .d {
        fill: #5277c3;
      }

      .d, .e {
        fill-rule: evenodd;
      }

      .e {
        fill: #7ebae4;
      }
    </style>
    <linearGradient id="b" x1="28" y1="58" x2="28" y2="2" gradientTransform="translate(0 58) scale(1 -1)" gradientUnits="userSpaceOnUse">
      <stop offset="0" stop-color="#7ebae4"/>
      <stop offset="1" stop-color="#5277c3"/>
    </linearGradient>
  </defs>
  <rect x="1.05" y="1.05" width="53.9" height="53.9" rx="7.35" ry="7.35"/>
  <path class="d" d="m20.2,28.77l9.74,16.88-4.48.04-2.6-4.53-2.62,4.51h-2.22s-1.14-1.97-1.14-1.97l3.73-6.42-2.65-4.61,2.24-3.9Z"/>
  <path class="e" d="m23.72,21.82l-9.74,16.88-2.28-3.86,2.63-4.52h-5.22s-1.11-1.94-1.11-1.94l1.14-1.97,7.42.02,2.67-4.6h4.49Z"/>
  <path class="e" d="m24.47,35.31h19.49s-2.2,3.9-2.2,3.9h-5.23s2.6,4.51,2.6,4.51l-1.11,1.93h-2.27s-3.69-6.44-3.69-6.44h-5.32s-2.26-3.9-2.26-3.9Z"/>
  <path class="e" d="m35.81,27.92l-9.74-16.88,4.48-.04,2.6,4.53,2.62-4.51h2.22s1.14,1.97,1.14,1.97l-3.73,6.42,2.65,4.61-2.24,3.9Z"/>
  <path class="d" d="m20.2,28.77l9.74,16.88-4.48.04-2.6-4.53-2.62,4.51h-2.22s-1.14-1.97-1.14-1.97l3.73-6.42-2.65-4.61,2.24-3.9Z"/>
  <path class="d" d="m31.52,21.34H12.03s2.2-3.9,2.2-3.9h5.23s-2.6-4.51-2.6-4.51l1.11-1.93h2.27s3.69,6.44,3.69,6.44h5.32s2.26,3.9,2.26,3.9Z"/>
  <path class="d" d="m32.28,34.87l9.74-16.88,2.28,3.86-2.63,4.52h5.22s1.11,1.94,1.11,1.94l-1.13,1.97-7.42-.02-2.67,4.6h-4.49Z"/>
  <rect class="c" x="1.05" y="1.05" width="53.9" height="53.9" rx="7.35" ry="7.35"/>
</svg>